<svg width="418" height="308" viewBox="0 0 418 308" fill="none" xmlns="http://www.w3.org/2000/svg">
<path d="M84.6667 17.3331C25.7333 22.3998 1.93443e-05 54.9331 18.4 101.333C22 110.666 31.2 126.266 36.6667 132.666C39.7334 136.133 39.6 135.6 35.4667 128C24.9334 108.266 22.4 89.3331 28.1334 73.9998C34.2667 57.4664 52.5334 45.1998 78.6667 39.8664C90.8 37.4664 95.7334 37.1998 115.333 37.7331C139.467 38.3998 152.533 40.3998 177.6 46.6664C222.667 57.9998 274.933 83.0665 312.533 111.066C327.067 122.133 350.533 144.933 360.267 157.866C397.467 207.2 387.067 250.266 334.8 263.2C325.2 265.466 322.8 266.8 329.467 266C363.067 261.866 378.267 256 392.4 241.866C408 226.133 409.333 201.2 396.133 175.066C374.4 132.133 320.4 86.3998 254.667 55.7331C207.733 33.7331 162.8 20.9331 119.333 17.3331C101.867 15.8664 102.133 15.8664 84.6667 17.3331Z" fill="#1A1842"/>
<path d="M92.0003 51.5999C60.8003 56.2665 42.9336 68.6665 37.8669 88.7999L36.9336 92.5332L42.1336 87.5999C49.7336 80.3999 64.1336 73.7332 79.4669 70.5332C98.1336 66.5332 136.934 67.4665 160.667 72.5332C241.734 89.5999 317.6 138.133 341.2 188C350.8 208.267 349.067 228.667 336.667 242.4C330.4 249.467 320.934 255.333 310.8 258.8C306.267 260.4 302.8 261.867 303.067 262.133C304.134 263.2 329.2 256.133 336.534 252.667C346.667 247.867 357.734 237.467 362 228.667C389.467 172.533 283.2 81.9999 160.134 56.5332C135.867 51.5999 106.267 49.3332 92.0003 51.5999Z" fill="#D9832E"/>
<path d="M118.933 85.5999C116.667 90.9333 104.8 120.4 92.6668 151.067C80.4002 181.733 68.8002 208.667 67.0668 210.8C65.3335 212.933 61.4668 215.333 58.5335 216.133C55.7335 217.067 53.3335 218.267 53.3335 218.933C53.3335 219.467 61.4668 220 71.3335 220C81.2002 220 89.3335 219.6 89.3335 218.933C89.3335 218.4 88.1335 216.8 86.5335 215.467C84.2668 213.6 83.8668 212.267 84.6668 208.4C85.6002 203.067 95.8668 174.933 97.6002 172.533C98.2668 171.6 103.733 170.267 109.733 169.467C139.067 165.333 142.667 162.667 118.8 162.667C110 162.667 102.533 162.267 102.267 161.6C101.6 160.533 118.933 113.333 120 113.333C120.4 113.333 122.4 118 124.533 123.6C126.533 129.333 134.933 151.867 143.067 173.733C155.2 206.267 157.6 214 156.267 216C155.467 217.333 155.2 218.8 155.6 219.2C156.133 219.6 161.733 220 168.267 220H180V250.667C180 283.867 178.933 290.667 173.467 290.667C172 290.667 170.4 291.2 170 292C169.467 292.933 177.067 293.333 191.867 293.333C206.133 293.333 214.667 292.8 214.667 292C214.667 291.2 213.2 290.667 211.6 290.667C209.867 290.667 207.333 289.467 205.867 287.867C203.6 285.333 203.333 282.267 202.933 254.533C202.667 237.733 202.933 224 203.6 224.133C204.133 224.133 209.467 229.867 215.333 236.933C247.2 274.8 259.6 287.467 269.2 291.467C275.333 294.133 302.533 295.6 306.133 293.6C308.667 292.267 308.667 292.133 306 291.333C296 288 289.333 284.533 281.867 278.667C274 272.267 251.067 248.533 228.8 223.467L219.467 213.2L241.467 191.2C264.133 168.4 275.467 159.333 283.467 157.867C288.8 156.933 290.8 154.667 286.4 154.533C247.467 153.6 248.667 153.6 250.933 157.2C253.333 161.2 251.2 165.6 241.867 176C231.733 187.467 204 216 203.2 216C202.267 216 202.533 168.667 203.467 164C204.133 160.933 205.6 159.2 208.8 157.6C211.333 156.4 212.8 155.2 212.133 154.8C209.867 153.333 169.333 153.867 169.333 155.333C169.333 156 171.067 157.067 173.333 157.733C175.467 158.267 177.867 159.867 178.667 161.333C180 164 181.067 202 179.733 203.333C178.8 204.267 172.933 190.133 146.667 124.8C133.333 91.5999 126.667 76.5333 125.2 76.2666C123.6 75.9999 121.867 78.5333 118.933 85.5999Z" fill="#1A1842"/>
</svg>
