<svg width="394" height="344" viewBox="0 0 394 344" fill="none" xmlns="http://www.w3.org/2000/svg">
<path d="M79.7259 1.08242C21.9343 6.06805 -3.3004 38.0808 14.7431 83.7382C18.2733 92.9218 27.2951 108.272 32.6559 114.57C35.6632 117.981 35.5324 117.457 31.4791 109.978C21.1499 90.5602 18.6656 71.9303 24.2879 56.8424C30.3024 40.5735 48.2152 28.5032 73.8422 23.2551C85.7404 20.8936 90.5782 20.6312 109.798 21.156C133.464 21.812 146.277 23.78 170.859 29.9463C215.053 41.0984 266.306 65.764 303.177 93.3154C317.43 104.205 340.441 126.64 349.987 139.367C386.466 187.911 376.267 230.288 325.013 243.015C315.599 245.245 313.245 246.557 319.783 245.77C352.732 241.702 367.638 235.93 381.497 222.022C396.795 206.541 398.102 182.007 385.158 156.291C363.846 114.045 310.892 69.0439 246.433 38.868C200.408 17.22 156.345 4.62482 113.721 1.08242C96.593 -0.360808 96.8538 -0.360808 79.7259 1.08242Z" fill="#1A1842"/>
<path d="M86.9913 34.867C56.4006 39.4559 38.8828 51.6493 33.9151 71.4474L33 75.1185L38.0984 70.2674C45.55 63.1873 59.6688 56.6316 74.7027 53.4849C93.0048 49.5516 131.048 50.4693 154.317 55.4516C233.801 72.234 308.185 119.959 331.324 168.995C340.737 188.925 339.038 208.985 326.88 222.489C320.735 229.438 311.454 235.207 301.518 238.616C297.074 240.189 293.674 241.632 293.936 241.893C294.982 242.942 319.559 235.993 326.75 232.585C336.685 227.865 347.536 217.638 351.718 208.985C378.649 153.786 274.457 64.7606 153.794 39.7181C130.001 34.867 100.979 32.6381 86.9913 34.867Z" fill="#D9832E"/>
<path d="M66.6305 71.224C65.1112 71.6581 65.3283 71.8751 69.0902 73.8285C74.6609 76.7223 76.3248 79.7608 76.2525 86.8507C76.2525 89.6722 75.6737 93.6512 74.9502 95.8939C73.214 101.03 39.8625 172.436 28.0702 196.093C21.4867 209.26 17.146 213.022 7.59631 213.673C2.45976 214.035 0 214.758 0 215.988C0 216.422 11.8647 216.711 31.8322 216.711C53.6082 216.711 63.6643 216.494 63.6643 215.916C63.6643 214.758 58.8895 213.094 55.3445 213.094C50.8591 213.094 47.8929 211.503 47.6035 208.97C47.1695 205.064 48.4717 200.94 55.1998 185.241L62.0004 169.325L76.3972 168.891C91.011 168.384 106.204 166.938 117.128 164.912C135.359 161.584 151.854 153.264 162.561 141.978C168.783 135.467 172.4 129.101 174.353 121.577C177.681 108.41 174.715 97.7026 164.948 87.9359C155.037 77.9522 138.976 72.6709 115.102 71.5134L105.48 71.0793L105.987 72.8156C106.276 73.7561 107.144 75.7095 107.868 77.1564C109.17 79.6885 109.315 79.8332 114.379 80.2672C127.039 81.5695 135.721 85.4038 142.738 92.9278C147.802 98.426 149.756 103.346 150.262 112.172C150.913 122.951 147.658 131.85 139.989 140.531C128.848 153.119 104.54 161.439 74.5885 162.958C65.907 163.393 64.8942 163.32 65.3283 162.235C67.4986 156.52 85.8021 115.427 86.1638 115.427C86.3809 115.427 90.1429 123.675 94.4113 133.658C98.6797 143.715 102.442 152.251 102.731 152.613C103.527 153.409 111.847 150.587 119.009 147.115C128.414 142.485 127.98 143.208 124.797 136.263C123.35 132.935 116.404 117.236 109.459 101.32C102.514 85.4038 96.654 72.1645 96.3646 71.9475C95.6411 71.2964 68.7285 70.6453 66.6305 71.224Z" fill="#1A1842"/>
<path d="M132.031 167.661C128.848 168.819 122.988 170.482 119.009 171.278C115.03 172.146 111.702 172.87 111.557 172.942C111.485 173.015 114.813 181.19 119.009 191.101C123.205 201.012 126.605 209.549 126.605 209.983C126.605 211.503 123.856 213.818 121.975 213.818C121.035 213.818 119.515 214.469 118.575 215.265C116.839 216.639 116.911 216.639 150.335 216.711C177.754 216.711 183.758 216.567 183.758 215.771C183.758 214.252 180.503 213.094 176.524 213.094C163.068 213.094 157.714 207.451 145.053 179.598C141.508 171.785 138.398 165.418 138.181 165.418C137.964 165.491 135.214 166.503 132.031 167.661Z" fill="#1A1842"/>
<path d="M280.66 283.54L257.8 283C252.64 283 248.44 283.06 245.2 283.18C240.64 277.66 231.16 266.92 216.76 250.96C202.36 234.88 194.38 226.84 192.82 226.84H192.64V267.34C192.64 269.5 193.42 271.12 194.98 272.2C196.66 273.28 199.9 273.82 204.7 273.82L207.04 283.54C192.64 283.18 182.8 283 177.52 283C172.24 283 164.98 283.18 155.74 283.54L153.58 273.82C159.34 273.7 163.12 273.1 164.92 272.02C166.84 270.94 167.8 269.38 167.8 267.34V170.86C167.8 168.7 166.96 167.08 165.28 166C163.72 164.92 160.54 164.38 155.74 164.38L153.4 154.66C167.8 155.02 177.64 155.2 182.92 155.2C188.32 155.2 195.58 155.02 204.7 154.66L206.86 164.38C201.1 164.5 197.26 165.1 195.34 166.18C193.54 167.26 192.64 168.82 192.64 170.86V213.88C199.96 206.92 208.96 197.68 219.64 186.16C230.32 174.64 235.66 168.16 235.66 166.72C235.66 165.16 231.7 164.38 223.78 164.38L221.44 154.66C235.84 155.02 245.68 155.2 250.96 155.2C256.24 155.2 263.5 155.02 272.74 154.66L274.9 164.38C262.66 164.74 254.86 166.72 251.5 170.32L211.54 212.98L261.76 267.34C266.32 271.66 271.84 273.82 278.32 273.82L280.66 283.54Z" fill="#1A1842"/>
</svg>
