<svg width="357" height="82" viewBox="0 0 357 82" fill="none" xmlns="http://www.w3.org/2000/svg">
<circle cx="41" cy="41" r="40.25" fill="white" stroke="#1C75BC" stroke-width="1.5"/>
<circle cx="41" cy="41" r="37.25" stroke="#EF4136" stroke-width="1.5"/>
<g clip-path="url(#clip0_892_814)">
<path d="M18.2758 46.6465L19.0057 41.8326H33.4316L34.1615 46.6465H18.2758ZM26.1328 33.2698L21.6247 43.5366L21.7535 44.8999L17.8035 53.4201H10.8911L26.1328 21.8528L41.3745 53.4201H34.4191L30.555 45.1555L30.6409 43.6218L26.1328 33.2698Z" fill="#1C75BC"/>
<path d="M46.1416 24.2756H52.4529V54.0963H46.1416V24.2756ZM63.1436 24.2756H70.4424L57.9915 38.2487L71.0864 54.0963H63.6159L50.6497 38.4191L63.1436 24.2756Z" fill="#1C75BC"/>
<path d="M26.1817 21.6384L31.9744 33.8101L21.752 30.7672L26.1817 21.6384Z" fill="#EF4136"/>
<path d="M71.1602 54.0962H63.6637L55.145 43.9531L65.3675 46.996L71.1602 54.0962Z" fill="#EF4136"/>
<path d="M94.4827 59.0759L-2.30509 24.7507L-15.1099 15.7021L96.8976 55.2362L94.4827 59.0759Z" fill="white"/>
</g>
<path d="M93.374 37.14L93.968 34.44H102.743L103.364 37.14H93.374ZM98.315 28.446L95.345 35.385L95.291 36.087L92.672 42H89.081L98.315 22.047L107.549 42H103.958L101.393 36.249L101.312 35.466L98.315 28.446ZM123.545 23.1H126.677V42.945L112.88 29.31V42H109.748V22.155L123.545 35.79V23.1ZM130.868 23.1H134.135V42H130.868V23.1ZM141.155 23.1H144.989L137.024 31.956L145.394 42H141.479L133.163 32.037L141.155 23.1ZM147.45 23.1H150.636V35.655C150.636 36.825 150.942 37.77 151.554 38.49C152.184 39.192 153.111 39.543 154.335 39.543C155.541 39.543 156.459 39.192 157.089 38.49C157.719 37.77 158.034 36.825 158.034 35.655V23.1H161.22V35.79C161.22 36.834 161.049 37.77 160.707 38.598C160.383 39.408 159.915 40.101 159.303 40.677C158.691 41.253 157.962 41.694 157.116 42C156.27 42.306 155.343 42.459 154.335 42.459C153.327 42.459 152.4 42.306 151.554 42C150.708 41.694 149.97 41.253 149.34 40.677C148.728 40.101 148.26 39.408 147.936 38.598C147.612 37.77 147.45 36.834 147.45 35.79V23.1ZM165.303 23.1H168.489V39.138H175.995V42H165.303V23.1ZM186.397 23.1H189.664V42H186.397V23.1ZM196.684 23.1H200.518L192.553 31.956L200.923 42H197.008L188.692 32.037L196.684 23.1ZM204.383 33.333V30.39H217.856V33.333H204.383ZM215.804 23.1H218.99V42H215.804V23.1ZM203.114 23.1H206.3V42H203.114V23.1ZM223.071 23.1H226.257V35.655C226.257 36.825 226.563 37.77 227.175 38.49C227.805 39.192 228.732 39.543 229.956 39.543C231.162 39.543 232.08 39.192 232.71 38.49C233.34 37.77 233.655 36.825 233.655 35.655V23.1H236.841V35.79C236.841 36.834 236.67 37.77 236.328 38.598C236.004 39.408 235.536 40.101 234.924 40.677C234.312 41.253 233.583 41.694 232.737 42C231.891 42.306 230.964 42.459 229.956 42.459C228.948 42.459 228.021 42.306 227.175 42C226.329 41.694 225.591 41.253 224.961 40.677C224.349 40.101 223.881 39.408 223.557 38.598C223.233 37.77 223.071 36.834 223.071 35.79V23.1ZM242.166 35.925C242.58 36.645 243.021 37.284 243.489 37.842C243.975 38.382 244.506 38.805 245.082 39.111C245.658 39.399 246.306 39.543 247.026 39.543C247.89 39.543 248.592 39.309 249.132 38.841C249.672 38.373 249.942 37.77 249.942 37.032C249.942 36.33 249.771 35.772 249.429 35.358C249.087 34.926 248.61 34.566 247.998 34.278C247.404 33.972 246.711 33.675 245.919 33.387C245.451 33.225 244.929 33.009 244.353 32.739C243.777 32.451 243.228 32.1 242.706 31.686C242.184 31.254 241.752 30.732 241.41 30.12C241.068 29.49 240.897 28.734 240.897 27.852C240.897 26.844 241.158 25.962 241.68 25.206C242.202 24.432 242.904 23.838 243.786 23.424C244.686 22.992 245.703 22.776 246.837 22.776C247.953 22.776 248.925 22.974 249.753 23.37C250.581 23.766 251.274 24.27 251.832 24.882C252.408 25.494 252.858 26.133 253.182 26.799L250.59 28.257C250.356 27.789 250.059 27.357 249.699 26.961C249.339 26.547 248.916 26.223 248.43 25.989C247.962 25.737 247.413 25.611 246.783 25.611C245.901 25.611 245.253 25.818 244.839 26.232C244.425 26.628 244.218 27.096 244.218 27.636C244.218 28.122 244.362 28.563 244.65 28.959C244.956 29.337 245.424 29.697 246.054 30.039C246.684 30.381 247.503 30.732 248.511 31.092C249.069 31.29 249.627 31.542 250.185 31.848C250.761 32.154 251.283 32.541 251.751 33.009C252.219 33.459 252.588 33.99 252.858 34.602C253.146 35.214 253.29 35.934 253.29 36.762C253.29 37.644 253.119 38.436 252.777 39.138C252.435 39.84 251.967 40.434 251.373 40.92C250.779 41.388 250.104 41.748 249.348 42C248.61 42.27 247.836 42.405 247.026 42.405C245.91 42.405 244.875 42.189 243.921 41.757C242.985 41.307 242.166 40.713 241.464 39.975C240.762 39.237 240.204 38.436 239.79 37.572L242.166 35.925ZM257.829 33.333V30.39H271.302V33.333H257.829ZM269.25 23.1H272.436V42H269.25V23.1ZM256.56 23.1H259.746V42H256.56V23.1ZM293.743 35.763L298.171 23.1H301.87L294.148 42.999L288.316 29.634L282.484 42.999L274.762 23.1H278.461L282.943 35.763L288.316 22.155L293.743 35.763ZM303.758 37.14L304.352 34.44H313.127L313.748 37.14H303.758ZM308.699 28.446L305.729 35.385L305.675 36.087L303.056 42H299.465L308.699 22.047L317.933 42H314.342L311.777 36.249L311.696 35.466L308.699 28.446ZM321.4 33.333V30.39H334.873V33.333H321.4ZM332.821 23.1H336.007V42H332.821V23.1ZM320.131 23.1H323.317V42H320.131V23.1ZM342.491 37.14L343.085 34.44H351.86L352.481 37.14H342.491ZM347.432 28.446L344.462 35.385L344.408 36.087L341.789 42H338.198L347.432 22.047L356.666 42H353.075L350.51 36.249L350.429 35.466L347.432 28.446Z" fill="#1C75BC"/>
<path d="M91.265 55.09V53.5H95.96V55.09H91.265ZM91.265 59.26V57.715H95.81V59.26H91.265ZM90.17 53.5H91.91V64H90.17V53.5ZM99.1693 57.1V64H97.5643V57.1H99.1693ZM101.224 58.825C101.074 58.705 100.934 58.615 100.804 58.555C100.674 58.495 100.509 58.465 100.309 58.465C100.039 58.465 99.8193 58.535 99.6493 58.675C99.4793 58.815 99.3543 59.01 99.2743 59.26C99.2043 59.5 99.1693 59.785 99.1693 60.115L98.6293 59.8C98.6293 59.25 98.7293 58.765 98.9293 58.345C99.1393 57.915 99.4043 57.575 99.7243 57.325C100.054 57.075 100.394 56.95 100.744 56.95C100.994 56.95 101.229 56.99 101.449 57.07C101.669 57.14 101.854 57.27 102.004 57.46L101.224 58.825ZM102.371 60.55C102.371 59.84 102.531 59.215 102.851 58.675C103.181 58.135 103.626 57.715 104.186 57.415C104.746 57.105 105.381 56.95 106.091 56.95C106.801 56.95 107.431 57.105 107.981 57.415C108.541 57.715 108.986 58.135 109.316 58.675C109.646 59.215 109.811 59.84 109.811 60.55C109.811 61.25 109.646 61.875 109.316 62.425C108.986 62.965 108.541 63.39 107.981 63.7C107.431 64 106.801 64.15 106.091 64.15C105.381 64.15 104.746 64 104.186 63.7C103.626 63.39 103.181 62.965 102.851 62.425C102.531 61.875 102.371 61.25 102.371 60.55ZM104.036 60.55C104.036 60.98 104.126 61.36 104.306 61.69C104.486 62.01 104.731 62.265 105.041 62.455C105.351 62.635 105.701 62.725 106.091 62.725C106.471 62.725 106.816 62.635 107.126 62.455C107.446 62.265 107.696 62.01 107.876 61.69C108.056 61.36 108.146 60.98 108.146 60.55C108.146 60.12 108.056 59.74 107.876 59.41C107.696 59.08 107.446 58.825 107.126 58.645C106.816 58.465 106.471 58.375 106.091 58.375C105.701 58.375 105.351 58.465 105.041 58.645C104.731 58.825 104.486 59.08 104.306 59.41C104.126 59.74 104.036 60.12 104.036 60.55ZM115.788 59.8C115.788 59.29 115.683 58.905 115.473 58.645C115.263 58.385 114.938 58.255 114.498 58.255C114.198 58.255 113.933 58.32 113.703 58.45C113.473 58.57 113.293 58.75 113.163 58.99C113.033 59.22 112.968 59.49 112.968 59.8V64H111.348V57.1H112.968V58.165C113.188 57.755 113.468 57.45 113.808 57.25C114.158 57.05 114.573 56.95 115.053 56.95C115.833 56.95 116.428 57.19 116.838 57.67C117.248 58.14 117.453 58.79 117.453 59.62V64H115.788V59.8ZM118.562 57.1H122.477V58.525H118.562V57.1ZM119.717 54.7H121.322V64H119.717V54.7ZM124.825 64V62.44H130.12V64H124.825ZM124.825 55.06V53.5H130.12V55.06H124.825ZM124.825 59.14V57.61H129.82V59.14H124.825ZM123.73 53.5H125.47V64H123.73V53.5ZM136.604 59.8C136.604 59.29 136.499 58.905 136.289 58.645C136.079 58.385 135.754 58.255 135.314 58.255C135.014 58.255 134.749 58.32 134.519 58.45C134.289 58.57 134.109 58.75 133.979 58.99C133.849 59.22 133.784 59.49 133.784 59.8V64H132.164V57.1H133.784V58.165C134.004 57.755 134.284 57.45 134.624 57.25C134.974 57.05 135.389 56.95 135.869 56.95C136.649 56.95 137.244 57.19 137.654 57.67C138.064 58.14 138.269 58.79 138.269 59.62V64H136.604V59.8ZM145.528 52.3H147.163V64H145.528V52.3ZM139.813 60.55C139.813 59.79 139.968 59.145 140.278 58.615C140.588 58.075 140.998 57.665 141.508 57.385C142.028 57.095 142.583 56.95 143.173 56.95C143.753 56.95 144.258 57.095 144.688 57.385C145.128 57.675 145.473 58.09 145.723 58.63C145.983 59.16 146.113 59.8 146.113 60.55C146.113 61.29 145.983 61.93 145.723 62.47C145.473 63.01 145.128 63.425 144.688 63.715C144.258 64.005 143.753 64.15 143.173 64.15C142.583 64.15 142.028 64.01 141.508 63.73C140.998 63.44 140.588 63.025 140.278 62.485C139.968 61.945 139.813 61.3 139.813 60.55ZM141.493 60.55C141.493 61.01 141.588 61.405 141.778 61.735C141.968 62.065 142.218 62.315 142.528 62.485C142.848 62.655 143.193 62.74 143.563 62.74C143.873 62.74 144.178 62.655 144.478 62.485C144.788 62.315 145.038 62.07 145.228 61.75C145.428 61.42 145.528 61.02 145.528 60.55C145.528 60.08 145.428 59.685 145.228 59.365C145.038 59.035 144.788 58.785 144.478 58.615C144.178 58.445 143.873 58.36 143.563 58.36C143.193 58.36 142.848 58.445 142.528 58.615C142.218 58.785 141.968 59.035 141.778 59.365C141.588 59.695 141.493 60.09 141.493 60.55ZM153.803 53.5H155.603V64H153.803V53.5ZM157.193 64H154.898V62.335H157.148C157.668 62.335 158.148 62.26 158.588 62.11C159.028 61.96 159.408 61.735 159.728 61.435C160.058 61.135 160.313 60.76 160.493 60.31C160.683 59.86 160.778 59.34 160.778 58.75C160.778 58.16 160.683 57.64 160.493 57.19C160.313 56.74 160.058 56.365 159.728 56.065C159.408 55.765 159.028 55.54 158.588 55.39C158.148 55.24 157.668 55.165 157.148 55.165H154.898V53.5H157.193C158.263 53.5 159.203 53.72 160.013 54.16C160.823 54.59 161.453 55.2 161.903 55.99C162.363 56.77 162.593 57.69 162.593 58.75C162.593 59.81 162.363 60.735 161.903 61.525C161.453 62.305 160.823 62.915 160.013 63.355C159.203 63.785 158.263 64 157.193 64ZM167.185 64.15C166.485 64.15 165.865 64 165.325 63.7C164.795 63.4 164.385 62.98 164.095 62.44C163.805 61.9 163.66 61.27 163.66 60.55C163.66 59.82 163.805 59.185 164.095 58.645C164.395 58.105 164.815 57.69 165.355 57.4C165.895 57.1 166.53 56.95 167.26 56.95C167.99 56.95 168.61 57.09 169.12 57.37C169.63 57.65 170.02 58.055 170.29 58.585C170.57 59.105 170.71 59.735 170.71 60.475C170.71 60.555 170.705 60.64 170.695 60.73C170.695 60.82 170.69 60.885 170.68 60.925H164.62V59.815H169.3L168.805 60.505C168.835 60.445 168.865 60.365 168.895 60.265C168.935 60.155 168.955 60.065 168.955 59.995C168.955 59.625 168.88 59.305 168.73 59.035C168.59 58.765 168.39 58.555 168.13 58.405C167.88 58.255 167.585 58.18 167.245 58.18C166.835 58.18 166.485 58.27 166.195 58.45C165.905 58.63 165.685 58.89 165.535 59.23C165.385 59.57 165.305 59.99 165.295 60.49C165.295 60.99 165.37 61.415 165.52 61.765C165.67 62.105 165.89 62.365 166.18 62.545C166.48 62.725 166.84 62.815 167.26 62.815C167.7 62.815 168.085 62.725 168.415 62.545C168.745 62.365 169.02 62.09 169.24 61.72L170.635 62.29C170.275 62.91 169.81 63.375 169.24 63.685C168.67 63.995 167.985 64.15 167.185 64.15ZM170.987 57.1H172.757L174.557 61.555L176.357 57.1H178.142L174.557 64.63L170.987 57.1ZM181.936 64.15C181.236 64.15 180.616 64 180.076 63.7C179.546 63.4 179.136 62.98 178.846 62.44C178.556 61.9 178.411 61.27 178.411 60.55C178.411 59.82 178.556 59.185 178.846 58.645C179.146 58.105 179.566 57.69 180.106 57.4C180.646 57.1 181.281 56.95 182.011 56.95C182.741 56.95 183.361 57.09 183.871 57.37C184.381 57.65 184.771 58.055 185.041 58.585C185.321 59.105 185.461 59.735 185.461 60.475C185.461 60.555 185.456 60.64 185.446 60.73C185.446 60.82 185.441 60.885 185.431 60.925H179.371V59.815H184.051L183.556 60.505C183.586 60.445 183.616 60.365 183.646 60.265C183.686 60.155 183.706 60.065 183.706 59.995C183.706 59.625 183.631 59.305 183.481 59.035C183.341 58.765 183.141 58.555 182.881 58.405C182.631 58.255 182.336 58.18 181.996 58.18C181.586 58.18 181.236 58.27 180.946 58.45C180.656 58.63 180.436 58.89 180.286 59.23C180.136 59.57 180.056 59.99 180.046 60.49C180.046 60.99 180.121 61.415 180.271 61.765C180.421 62.105 180.641 62.365 180.931 62.545C181.231 62.725 181.591 62.815 182.011 62.815C182.451 62.815 182.836 62.725 183.166 62.545C183.496 62.365 183.771 62.09 183.991 61.72L185.386 62.29C185.026 62.91 184.561 63.375 183.991 63.685C183.421 63.995 182.736 64.15 181.936 64.15ZM187.008 52.3H188.628V64H187.008V52.3ZM190.174 60.55C190.174 59.84 190.334 59.215 190.654 58.675C190.984 58.135 191.429 57.715 191.989 57.415C192.549 57.105 193.184 56.95 193.894 56.95C194.604 56.95 195.234 57.105 195.784 57.415C196.344 57.715 196.789 58.135 197.119 58.675C197.449 59.215 197.614 59.84 197.614 60.55C197.614 61.25 197.449 61.875 197.119 62.425C196.789 62.965 196.344 63.39 195.784 63.7C195.234 64 194.604 64.15 193.894 64.15C193.184 64.15 192.549 64 191.989 63.7C191.429 63.39 190.984 62.965 190.654 62.425C190.334 61.875 190.174 61.25 190.174 60.55ZM191.839 60.55C191.839 60.98 191.929 61.36 192.109 61.69C192.289 62.01 192.534 62.265 192.844 62.455C193.154 62.635 193.504 62.725 193.894 62.725C194.274 62.725 194.619 62.635 194.929 62.455C195.249 62.265 195.499 62.01 195.679 61.69C195.859 61.36 195.949 60.98 195.949 60.55C195.949 60.12 195.859 59.74 195.679 59.41C195.499 59.08 195.249 58.825 194.929 58.645C194.619 58.465 194.274 58.375 193.894 58.375C193.504 58.375 193.154 58.465 192.844 58.645C192.534 58.825 192.289 59.08 192.109 59.41C191.929 59.74 191.839 60.12 191.839 60.55ZM200.726 67.3H199.091V57.1H200.726V67.3ZM206.441 60.55C206.441 61.31 206.286 61.965 205.976 62.515C205.666 63.055 205.256 63.47 204.746 63.76C204.236 64.04 203.681 64.18 203.081 64.18C202.491 64.18 201.976 64.035 201.536 63.745C201.106 63.445 200.771 63.025 200.531 62.485C200.301 61.935 200.186 61.29 200.186 60.55C200.186 59.8 200.301 59.155 200.531 58.615C200.771 58.075 201.106 57.66 201.536 57.37C201.976 57.07 202.491 56.92 203.081 56.92C203.681 56.92 204.236 57.065 204.746 57.355C205.256 57.635 205.666 58.045 205.976 58.585C206.286 59.125 206.441 59.78 206.441 60.55ZM204.761 60.55C204.761 60.09 204.666 59.7 204.476 59.38C204.286 59.05 204.031 58.805 203.711 58.645C203.401 58.475 203.056 58.39 202.676 58.39C202.366 58.39 202.061 58.475 201.761 58.645C201.461 58.805 201.211 59.045 201.011 59.365C200.821 59.685 200.726 60.08 200.726 60.55C200.726 61.02 200.821 61.415 201.011 61.735C201.211 62.055 201.461 62.3 201.761 62.47C202.061 62.63 202.366 62.71 202.676 62.71C203.056 62.71 203.401 62.63 203.711 62.47C204.031 62.3 204.286 62.055 204.476 61.735C204.666 61.405 204.761 61.01 204.761 60.55ZM210.984 64.15C210.284 64.15 209.664 64 209.124 63.7C208.594 63.4 208.184 62.98 207.894 62.44C207.604 61.9 207.459 61.27 207.459 60.55C207.459 59.82 207.604 59.185 207.894 58.645C208.194 58.105 208.614 57.69 209.154 57.4C209.694 57.1 210.329 56.95 211.059 56.95C211.789 56.95 212.409 57.09 212.919 57.37C213.429 57.65 213.819 58.055 214.089 58.585C214.369 59.105 214.509 59.735 214.509 60.475C214.509 60.555 214.504 60.64 214.494 60.73C214.494 60.82 214.489 60.885 214.479 60.925H208.419V59.815H213.099L212.604 60.505C212.634 60.445 212.664 60.365 212.694 60.265C212.734 60.155 212.754 60.065 212.754 59.995C212.754 59.625 212.679 59.305 212.529 59.035C212.389 58.765 212.189 58.555 211.929 58.405C211.679 58.255 211.384 58.18 211.044 58.18C210.634 58.18 210.284 58.27 209.994 58.45C209.704 58.63 209.484 58.89 209.334 59.23C209.184 59.57 209.104 59.99 209.094 60.49C209.094 60.99 209.169 61.415 209.319 61.765C209.469 62.105 209.689 62.365 209.979 62.545C210.279 62.725 210.639 62.815 211.059 62.815C211.499 62.815 211.884 62.725 212.214 62.545C212.544 62.365 212.819 62.09 213.039 61.72L214.434 62.29C214.074 62.91 213.609 63.375 213.039 63.685C212.469 63.995 211.784 64.15 210.984 64.15ZM217.661 57.1V64H216.056V57.1H217.661ZM219.716 58.825C219.566 58.705 219.426 58.615 219.296 58.555C219.166 58.495 219.001 58.465 218.801 58.465C218.531 58.465 218.311 58.535 218.141 58.675C217.971 58.815 217.846 59.01 217.766 59.26C217.696 59.5 217.661 59.785 217.661 60.115L217.121 59.8C217.121 59.25 217.221 58.765 217.421 58.345C217.631 57.915 217.896 57.575 218.216 57.325C218.546 57.075 218.886 56.95 219.236 56.95C219.486 56.95 219.721 56.99 219.941 57.07C220.161 57.14 220.346 57.27 220.496 57.46L219.716 58.825Z" fill="black"/>
<defs>
<clipPath id="clip0_892_814">
<rect width="63.6809" height="77.0873" fill="white" transform="translate(10.4683)"/>
</clipPath>
</defs>
</svg>
